<svg width="40" height="40" viewBox="0 0 40 40" fill="none" xmlns="http://www.w3.org/2000/svg">
<g clip-path="url(#clip0_260_711)">
<path d="M30.4917 11.8583C31.1406 11.2093 31.1406 10.1572 30.4917 9.50825V9.50825C29.8428 8.85932 28.7906 8.85932 28.1417 9.50825L20 17.6499L11.8584 9.50825C11.2094 8.85932 10.1573 8.85932 9.50837 9.50825V9.50825C8.85944 10.1572 8.85944 11.2093 9.50837 11.8583L17.65 19.9999L9.50837 28.1416C8.85944 28.7905 8.85944 29.8427 9.50837 30.4916V30.4916C10.1573 31.1405 11.2094 31.1405 11.8584 30.4916L20 22.3499L28.1417 30.4916C28.7906 31.1405 29.8428 31.1405 30.4917 30.4916V30.4916C31.1406 29.8427 31.1406 28.7905 30.4917 28.1416L22.35 19.9999L30.4917 11.8583Z" fill="black"/>
</g>
<defs>
<clipPath id="clip0_260_711">
<rect width="40" height="40" fill="white"/>
</clipPath>
</defs>
</svg>
