<svg width="62" height="62" viewBox="0 0 62 62" fill="none" xmlns="http://www.w3.org/2000/svg">
<g clip-path="url(#clip0_91_38)">
<path d="M31 62C48.1208 62 62 48.1208 62 31C62 13.8792 48.1208 0 31 0C13.8792 0 0 13.8792 0 31C0 48.1208 13.8792 62 31 62Z" fill="#D5DCED"/>
<path d="M31 57.0001C45.3594 57.0001 57 45.3595 57 31C57 16.6406 45.3594 5 31 5C16.6406 5 4.99995 16.6406 4.99995 31C4.99995 45.3595 16.6406 57.0001 31 57.0001Z" fill="#C7CFE2"/>
<path d="M31 54.9996C44.2546 54.9996 54.9996 44.2547 54.9996 31.0001C54.9996 17.7455 44.2546 7.00049 31 7.00049C17.7454 7.00049 7.00043 17.7455 7.00043 31.0001C7.00043 44.2547 17.7454 54.9996 31 54.9996Z" fill="#959CB5"/>
<path d="M31 52.0002C42.598 52.0002 52.0001 42.5981 52.0001 31.0001C52.0001 19.4021 42.598 10 31 10C19.402 10 9.99992 19.4021 9.99992 31.0001C9.99992 42.5981 19.402 52.0002 31 52.0002Z" fill="#464655"/>
<path d="M31 49.0007C40.9415 49.0007 49.0006 40.9415 49.0006 31.0001C49.0006 21.0586 40.9415 12.9995 31 12.9995C21.0586 12.9995 12.9994 21.0586 12.9994 31.0001C12.9994 40.9415 21.0586 49.0007 31 49.0007Z" fill="#5B5D6E"/>
<path d="M38.0004 34.0001C41.8664 34.0001 45.0004 30.8662 45.0004 27.0002C45.0004 23.1342 41.8664 20.0002 38.0004 20.0002C34.1345 20.0002 31.0005 23.1342 31.0005 27.0002C31.0005 30.8662 34.1345 34.0001 38.0004 34.0001Z" fill="#7F8499"/>
<path d="M27.0003 25.9995C28.1048 25.9995 29.0003 25.1041 29.0003 23.9995C29.0003 22.8949 28.1048 21.9995 27.0003 21.9995C25.8957 21.9995 25.0003 22.8949 25.0003 23.9995C25.0003 25.1041 25.8957 25.9995 27.0003 25.9995Z" fill="#00C3FF"/>
<path d="M33.9995 19.5005C34.8279 19.5005 35.4995 18.8289 35.4995 18.0005C35.4995 17.1721 34.8279 16.5005 33.9995 16.5005C33.1711 16.5005 32.4995 17.1721 32.4995 18.0005C32.4995 18.8289 33.1711 19.5005 33.9995 19.5005Z" fill="#00C3FF"/>
<path d="M38.5005 24.4995C39.0528 24.4995 39.5005 24.0518 39.5005 23.4995C39.5005 22.9472 39.0528 22.4995 38.5005 22.4995C37.9483 22.4995 37.5005 22.9472 37.5005 23.4995C37.5005 24.0518 37.9483 24.4995 38.5005 24.4995Z" fill="#87DCFF"/>
<path d="M10 31C10 42.598 19.4021 51.9999 31 51.9999C42.5979 51.9999 52 42.598 52 31C52 30.663 51.9652 30.3349 51.9496 30.0018C48.5013 30.0219 48.4805 32 44.9967 32C41.4952 32 41.4952 30 37.9935 30C34.4943 30 34.4943 32 30.9952 32C27.4948 32 27.4948 30 23.9946 30C20.4955 30 20.4955 32 16.9965 32C13.5161 32 13.4954 30.022 10.0505 30.0018C10.0347 30.3349 10 30.663 10 31Z" fill="#00AAF0"/>
<path d="M48.9864 30.7315C47.9161 31.3026 47.0668 32 44.9967 32C41.4952 32 41.4952 30 37.9935 30C34.4943 30 34.4943 32 30.9952 32C27.4948 32 27.4948 30 23.9946 30C20.4955 30 20.4955 32 16.9965 32C14.9301 32 14.0815 31.3038 13.0136 30.7331C13.0122 30.8228 13.0001 30.9099 13.0001 31C13.0001 40.9411 21.059 49 31.0001 49C40.9412 49 49 40.9411 49 31C49 30.9094 48.9877 30.8219 48.9864 30.7315Z" fill="#00C3FF"/>
<path d="M48 26.2087V35.7914C48 37.6661 49.3021 39.2894 51.1323 39.6961L55.1651 40.5924C56.3791 37.5401 57.0018 34.2849 57 31.0002C57 27.611 56.3447 24.3768 55.1651 21.408L51.1323 22.3042C49.3021 22.7107 48 24.3339 48 26.2087Z" fill="#C7CFE2"/>
<path d="M37.9936 30C35.2653 30 34.6585 31.2126 32.8673 31.7483C34.1459 33.1299 35.9691 34 38.0001 34C40.0298 34 41.8523 33.1308 43.1308 31.7505C41.3327 31.216 40.7276 30 37.9936 30Z" fill="#87DCFF"/>
</g>
<defs>
<clipPath id="clip0_91_38">
<rect width="62" height="62" fill="white"/>
</clipPath>
</defs>
</svg>
