<svg width="98" height="98" viewBox="0 0 98 98" fill="none" xmlns="http://www.w3.org/2000/svg">
<path d="M49.0355 1.25456e-05C21.9726 -0.0191446 0.0192692 21.9038 1.22859e-05 48.9643C-0.0189453 76.0267 21.9036 97.9805 48.9665 97.9997C76.0279 98.0187 97.9807 76.0958 98 49.0334C98.0189 21.973 76.097 0.0191696 49.0355 1.25456e-05ZM48.9811 77.0147C33.5087 77.0038 20.9746 64.4518 20.9855 48.979C20.9965 33.5075 33.5481 20.9741 49.0206 20.9849C64.4919 20.9959 77.0258 33.5469 77.0149 49.0186C77.0042 64.4913 64.4525 77.0255 48.9812 77.0147H48.9811Z" fill="#EDEDED"/>
<path d="M19.6538 34.7463L11.5347 31.3744L10.0329 34.9912L18.1514 38.3632L17.1707 40.7251L6.83789 36.4329L10.3024 28.0923L20.6347 32.3857L19.6538 34.7463Z" fill="#26A1DB"/>
<path d="M15.0817 23.4167C15.0259 21.8573 15.5958 20.4236 16.794 19.1368C17.9806 17.8608 19.3354 17.1791 20.8595 17.091C22.3938 16.989 23.8046 17.5387 25.0802 18.7261C26.3086 19.8699 26.9458 21.2259 26.968 22.7969C27.0018 24.3564 26.4307 25.7678 25.2648 27.0205C24.0772 28.2964 22.7228 28.978 21.188 29.078C19.665 29.1663 18.2536 28.6177 16.9786 27.4311C15.7728 26.3088 15.1366 24.9752 15.0817 23.4167ZM21.239 26.3952C22.1434 26.3861 22.9001 26.042 23.5099 25.387C24.207 24.6379 24.5172 23.8352 24.4417 23.0009C24.3548 22.1552 23.9543 21.3896 23.2291 20.7144C22.4911 20.0283 21.6882 19.6946 20.8072 19.727C19.9265 19.7596 19.1695 20.1027 18.5489 20.7702C17.9061 21.4602 17.6176 22.2387 17.6602 23.1087C17.7029 23.9786 18.0922 24.7558 18.8297 25.4418C19.5313 26.0949 20.3345 26.4052 21.2391 26.395L21.239 26.3952Z" fill="#26A1DB"/>
<path d="M37.5537 17.0064C37.4362 17.5044 37.1345 18.0247 36.6529 18.5528C36.1723 19.0766 35.6036 19.5053 34.9401 19.8566C33.4005 20.673 31.9106 20.8652 30.4572 20.4417C28.9957 20.0048 27.8642 19.0312 27.0489 17.4914C26.2631 16.0083 26.0648 14.54 26.4594 13.1013C26.8542 11.6617 27.8702 10.5087 29.5089 9.64083C30.7659 8.97472 32.134 8.79213 33.0771 9.0706L32.9723 11.296C32.091 11.2379 31.3082 11.3997 30.6312 11.7585C29.826 12.186 29.3047 12.8062 29.0589 13.6042C28.8138 14.4051 28.9481 15.2733 29.4499 16.2193C29.9134 17.0955 30.5772 17.666 31.4269 17.9376C32.2696 18.1983 33.1402 18.0988 34.029 17.6266C34.8201 17.2077 35.4134 16.5868 35.794 15.7684L37.5536 17.0067L37.5537 17.0064Z" fill="#26A1DB"/>
<path d="M36.1038 9.48895L35.6259 7.1407L44.7083 5.29364L45.1859 7.64278L41.8977 8.31138L43.6485 16.9243L41.1432 17.4332L39.3922 8.82144L36.1038 9.48895Z" fill="#26A1DB"/>
<path d="M49.9609 16.4355L47.7375 16.1854L48.988 5.06744L51.5291 5.3537L50.7522 12.2626L56.4535 5.90786L58.677 6.158L57.4261 17.2758L54.8848 16.9904L55.6618 10.0804L49.9609 16.4355Z" fill="#26A1DB"/>
<path d="M61.6621 19.1092L59.3433 18.0307L64.0617 7.88635C64.2355 7.96787 64.728 8.19746 65.5314 8.55346C66.3505 8.91525 66.9009 9.17198 67.1756 9.29929C68.6113 9.9665 69.5061 10.7711 69.8616 11.7123C70.2236 12.6379 70.1657 13.5983 69.714 14.5699C69.2758 15.5114 68.5505 16.1614 67.5593 16.5102C66.575 16.8465 65.5075 16.7554 64.3762 16.2293C63.8695 15.994 63.4997 15.8035 63.2662 15.6614L61.6621 19.1093V19.1092ZM65.3692 11.1391L64.2907 13.4571C64.6329 13.67 64.9823 13.8674 65.3146 14.0219C66.0545 14.3651 66.8457 14.293 67.2576 13.4086C67.6213 12.6262 67.339 12.0201 66.3971 11.5807C66.3534 11.5612 66.0136 11.42 65.3691 11.1391H65.3692Z" fill="#26A1DB"/>
<path d="M65.7462 20.6317L76.5801 15.2104L78.3093 16.706L74.5109 28.2085L72.4438 26.4215L73.2787 24.0393L69.9298 21.1434L67.6919 22.3148L65.7462 20.6317ZM75.2479 18.3884L72.2228 19.9576L74.1213 21.5979L75.2479 18.3884Z" fill="#26A1DB"/>
<path d="M75.8747 30.7109L74.7705 28.7642L84.5029 23.2423L85.7644 25.4677L79.7167 28.8979L88.2092 29.7778L89.314 31.7246L79.5812 37.2446L78.32 35.021L84.3677 31.5888L75.8747 30.7109ZM89.0561 25.438C88.5414 25.73 88.4945 26.0689 88.8506 26.6943C89.1734 27.2636 89.446 27.4221 90.0029 27.107L91.185 29.1915C90.5262 29.5843 89.833 29.6275 89.1226 29.3143C88.4206 29.0138 87.8173 28.4384 87.3206 27.5613C86.2714 25.7118 86.5241 24.1176 87.8722 23.3525L89.0563 25.438H89.0561Z" fill="#26A1DB"/>
<path d="M76.2138 55.9878C73.1048 68.1287 62.0881 77.0998 48.9802 77.0904C35.8725 77.0813 24.8677 68.0947 21.7767 55.9495L0.490906 55.9343C3.85817 79.6969 24.2699 97.9823 48.9665 97.9996C73.6606 98.0171 94.0981 79.7605 97.4998 56.0028L76.2138 55.9877V55.9878Z" fill="#26A1DB"/>
<path d="M77.0905 49.0188C77.0888 51.5162 76.7573 53.9366 76.1442 56.2403L97.4647 56.2553C97.814 53.8981 97.9982 51.4881 98 49.0335C98.0003 48.4927 97.9891 47.9538 97.972 47.4178L77.0419 47.4032C77.0726 47.9381 77.091 48.476 77.0906 49.0188H77.0905Z" fill="#E8413F"/>
<path d="M20.9098 48.979C20.9101 48.4363 20.9289 47.8984 20.9605 47.3634L0.0304423 47.3487C0.0133805 47.8846 0.000609146 48.4235 1.04869e-05 48.9643C-0.00158594 51.4189 0.179109 53.8291 0.526631 56.1869L21.8462 56.2019C21.2361 53.8972 20.9081 51.4764 20.9098 48.9789V48.979Z" fill="#E8413F"/>
<path d="M29.5274 86.1576L32.0479 80.8538L32.9859 81.2992L32.8191 81.6496C33.1755 81.51 33.7058 81.5317 34.1625 81.7487C34.66 81.985 34.987 82.3511 35.1215 82.8456C35.2571 83.34 35.1989 83.8612 34.9389 84.4087C34.6675 84.9793 34.2629 85.3664 33.7253 85.5719C33.1882 85.7755 32.6337 85.7431 32.0552 85.4678C31.6875 85.2928 31.4293 85.1004 31.284 84.8808L30.4656 86.6019L29.5274 86.1575V86.1576ZM32.4195 82.4902L31.7134 83.9763C31.8677 84.2191 32.0861 84.4134 32.3879 84.5564C33.0166 84.854 33.6331 84.5874 33.9317 83.9592C34.2146 83.3642 34.0618 82.7816 33.4502 82.49C33.1318 82.3393 32.7842 82.3341 32.4195 82.4902Z" fill="white"/>
<path d="M35.7907 84.8101C35.9765 84.2161 36.3166 83.7921 36.8228 83.5321C37.3321 83.2655 37.9091 83.2367 38.539 83.4324C39.1686 83.6289 39.6183 83.9778 39.886 84.4879C40.1556 84.9882 40.2037 85.5328 40.0179 86.1279C39.8319 86.7232 39.4832 87.1442 38.9736 87.4118C38.4671 87.6697 37.8991 87.7013 37.2696 87.5048C36.64 87.3092 36.1812 86.9574 35.9112 86.4572C35.6442 85.9481 35.6053 85.4053 35.7906 84.8102L35.7907 84.8101ZM37.557 86.5816C38.1788 86.7762 38.7583 86.464 38.9657 85.799C39.167 85.1525 38.861 84.5551 38.249 84.3652C37.6528 84.1783 37.0565 84.4858 36.8521 85.1411C36.6502 85.7876 36.945 86.3917 37.5569 86.5816H37.557Z" fill="white"/>
<path d="M42.8731 84.4986C43.5224 84.6137 43.9987 84.8724 44.3036 85.2755L43.7913 85.9364C43.5085 85.6206 43.1748 85.433 42.7746 85.3609C42.481 85.3092 42.2482 85.4333 42.2152 85.6198C42.1723 85.8604 42.4846 86.0628 42.8836 86.2426C43.4735 86.4857 44.2251 86.9039 44.0706 87.7214C43.9312 88.5018 43.211 88.8877 42.2242 88.7133C41.8777 88.6509 41.5519 88.5205 41.2414 88.3088C40.9391 88.0988 40.744 87.9083 40.6743 87.7306L41.2906 87.1524C41.3834 87.3069 41.5488 87.4546 41.79 87.5995C42.0297 87.7423 42.2427 87.8347 42.4476 87.8717C42.8844 87.9953 43.2794 87.5801 42.867 87.2682C42.359 86.8746 40.9842 86.6113 41.189 85.456C41.3239 84.6997 42.0194 84.3468 42.8732 84.4989L42.8731 84.4986Z" fill="white"/>
<path d="M45.4711 83.852L46.5059 83.9312L46.4202 85.0567L47.7262 85.1563L47.6518 86.1284L46.3459 86.0285L46.2336 87.5054C46.1963 87.9918 46.3404 88.2471 46.6638 88.2717C46.871 88.2873 47.0841 88.2224 47.3032 88.0857L47.5573 88.9102C47.2136 89.1469 46.8063 89.2525 46.3296 89.2152C45.4379 89.1475 45.1105 88.5696 45.1934 87.4898L45.4712 83.8519L45.4711 83.852Z" fill="white"/>
<path d="M49.3832 83.0973C49.6988 83.0918 49.9828 83.3316 49.9884 83.6927C49.9941 84.091 49.7177 84.3481 49.4018 84.3527C49.0314 84.3581 48.7475 84.1104 48.7415 83.7124C48.7359 83.3512 49.0218 83.1027 49.3832 83.0973ZM48.9328 89.2403L48.8716 85.1737L49.9107 85.16L49.9723 89.2245L48.9329 89.2404L48.9328 89.2403Z" fill="white"/>
<path d="M51.5274 89.1849L51.2054 85.1328L52.241 85.051L52.2726 85.4472C52.4729 85.1133 52.7756 84.9358 53.1629 84.9051C53.4423 84.8818 53.6626 84.9198 53.8059 85.0074L53.5132 86.0093C53.3341 85.9237 53.1501 85.8848 52.9788 85.8972C52.6821 85.9213 52.4685 86.0842 52.3468 86.3834L52.5628 89.1023L51.5273 89.1851L51.5274 89.1849Z" fill="white"/>
<path d="M54.4956 85.1195C54.8837 84.7821 55.3316 84.5705 55.838 84.4787C56.9751 84.2698 57.5395 84.7449 57.7415 85.8462L58.1889 88.2807L57.3004 88.4434L57.2157 87.9811C57.0393 88.3723 56.6701 88.6138 56.1286 88.7133C55.3819 88.8506 54.7893 88.4715 54.6503 87.7181C54.4958 86.8733 55.0166 86.3093 55.8698 86.1538C56.2338 86.087 56.5524 86.1201 56.8231 86.2448C56.7213 85.5379 56.4562 85.2463 55.8878 85.3507C55.5944 85.4048 55.2561 85.559 54.8901 85.818L54.4955 85.1196L54.4956 85.1195ZM57.0137 87.2837L56.9392 86.8748C56.7455 86.7736 56.4946 86.755 56.2009 86.8093C55.8366 86.8751 55.5943 87.1041 55.6528 87.4234C55.7064 87.7167 55.9792 87.8499 56.3074 87.7898C56.6542 87.7271 56.8892 87.5542 57.0137 87.2837V87.2837Z" fill="white"/>
<path d="M58.5978 81.8192C58.9025 81.7329 59.2379 81.8915 59.3365 82.2392C59.4441 82.6207 59.2432 82.941 58.9394 83.0263C58.5828 83.1281 58.2447 82.9599 58.1366 82.5783C58.0389 82.2306 58.2508 81.9172 58.5978 81.8193V81.8192ZM59.7429 87.8672L58.6388 83.9562L59.6385 83.6735L60.7422 87.5856L59.743 87.8673L59.7429 87.8672Z" fill="white"/>
<path d="M62.3125 85.657C62.6614 85.5343 63.0457 85.7528 63.1565 86.0676C63.2864 86.4338 63.1254 86.8453 62.7763 86.9683C62.3675 87.1138 61.983 86.895 61.8537 86.5279C61.7422 86.2131 61.9037 85.8007 62.3125 85.6571V85.657Z" fill="white"/>
<path d="M64.5906 86.2385L62.9514 82.5193L63.9017 82.1004L64.0622 82.4648C64.1406 82.0833 64.3685 81.8165 64.7239 81.6593C64.98 81.547 65.2004 81.5093 65.3648 81.5453L65.4191 82.5881C65.2212 82.5658 65.0343 82.5898 64.8777 82.6577C64.6047 82.7788 64.4564 83.0011 64.4407 83.3235L65.5408 85.8206L64.5905 86.2385H64.5906Z" fill="white"/>
<path d="M69.0454 79.3671L71.0879 82.8804L70.1894 83.4023L69.94 82.9729C69.8582 83.4797 69.5836 83.87 69.1153 84.1425C68.3888 84.5632 67.5951 84.3667 67.037 83.4059L65.7893 81.2582L66.6874 80.7364L67.8263 82.6966C68.1396 83.2358 68.5197 83.3691 68.965 83.1111C69.2695 82.9338 69.4534 82.6386 69.504 82.223L68.1477 79.8888L69.0453 79.3672L69.0454 79.3671Z" fill="white"/>
</svg>
